<svg width="24" height="19" viewBox="0 0 24 19" fill="none" xmlns="http://www.w3.org/2000/svg">
<path d="M23.2857 13.1775C23.6556 13.1599 23.9495 12.8919 23.9495 12.563C23.9495 10.7898 22.3254 9.40075 20.2521 9.40075H19.5669L18.7294 5.91695C19.5375 5.60925 20.1044 4.90257 20.1044 4.08164C20.1044 2.97893 19.082 2.08179 17.8252 2.08179H14.5855C14.1976 2.08179 13.8832 2.35769 13.8832 2.69801V3.46541H12.1569C11.769 3.46541 11.4546 3.74132 11.4546 4.08164C11.4546 4.42196 11.769 4.69786 12.1569 4.69786H13.8832V5.46526C13.8832 5.80558 14.1976 6.08149 14.5855 6.08149H14.8973C14.3158 6.68411 13.9641 7.46256 13.9641 8.31217V11.8189C13.9641 11.8368 13.9475 11.8514 13.927 11.8514H11.0901C11.0738 11.8514 11.0591 11.8419 11.0545 11.8281L10.2897 9.56031C10.9061 9.41583 11.3615 8.92182 11.3615 8.33604C11.3615 6.94514 10.072 5.81359 8.48688 5.81359H2.15935C0.968721 5.81355 0 6.66357 0 7.70836C0 8.6635 0.809673 9.45539 1.85832 9.58439C0.745876 10.4575 0.0443907 11.726 0.0443907 13.1356V15.0541C0.0443907 15.3944 0.358829 15.6703 0.746673 15.6703H1.35432C1.68141 17.1016 3.1246 18.1833 4.85059 18.1833C6.57658 18.1833 8.01977 17.1016 8.34686 15.6703H16.9377C17.2648 17.1016 18.7079 18.1833 20.4339 18.1833C22.4002 18.1833 24 16.7795 24 15.0541C24 14.3506 23.734 13.7008 23.2857 13.1775ZM22.43 11.9468H20.849C20.7127 11.9329 20.5744 11.9249 20.434 11.9249C20.1823 11.9249 19.9367 11.9483 19.6996 11.992V10.6332H20.2521C21.2806 10.6332 22.131 11.1758 22.43 11.9468ZM15.2877 3.31419H17.8252C18.3075 3.31419 18.6998 3.65846 18.6998 4.0816C18.6998 4.50474 18.3075 4.849 17.8252 4.849H15.2877V3.31419ZM11.0902 13.0838H13.9271C14.722 13.0838 15.3687 12.5164 15.3687 11.8188V8.31213C15.3687 7.25297 16.2165 6.36421 17.3479 6.14101L18.2951 10.0811V12.5519C17.6078 13.0054 17.1129 13.6715 16.9377 14.4378H9.95566C9.62768 12.2269 7.54445 10.5728 4.94429 10.5728C3.78484 10.5728 2.74393 10.9047 1.92268 11.4753C2.60105 10.3623 3.93849 9.6032 5.47468 9.6032H8.83966L9.70788 12.1778C9.88769 12.7113 10.4561 13.0838 11.0902 13.0838ZM1.506 14.4378C1.62872 13.7823 1.94827 13.1909 2.43694 12.7327C3.07477 12.1346 3.96521 11.8052 4.9442 11.8052C6.75554 11.8052 8.21884 12.9208 8.533 14.4378H1.506V14.4378ZM2.15935 8.37075C1.74314 8.37075 1.40452 8.07361 1.40452 7.70836C1.40452 7.3431 1.74314 7.04596 2.15935 7.04596H8.48688C9.29753 7.04596 9.95702 7.62463 9.95702 8.33596C9.95102 8.36131 9.90471 8.37807 9.8185 8.37067C9.23425 8.37067 9.40127 8.37067 9.27958 8.37067C8.44047 8.37075 2.16343 8.37075 2.15935 8.37075ZM4.85059 16.9508C3.90451 16.9508 3.09901 16.4145 2.80679 15.6703H6.89439C6.60217 16.4145 5.79667 16.9508 4.85059 16.9508ZM20.434 16.9508C19.2421 16.9508 18.2724 16.0999 18.2724 15.0541C18.2724 14.0082 19.2421 13.1574 20.434 13.1574C21.6259 13.1574 22.5955 14.0082 22.5955 15.0541C22.5955 16.0999 21.6258 16.9508 20.434 16.9508Z" fill="#D8D8D8"/>
<path d="M20.4341 15.6744C20.8245 15.6744 21.141 15.3967 21.141 15.0541C21.141 14.7116 20.8245 14.4338 20.4341 14.4338C20.0437 14.4338 19.7272 14.7116 19.7272 15.0541C19.7272 15.3967 20.0437 15.6744 20.4341 15.6744Z" fill="#D8D8D8"/>
<path d="M0.731702 4.02725H7.03021C7.41806 4.02725 7.7325 3.75134 7.7325 3.41102C7.7325 3.0707 7.41806 2.7948 7.03021 2.7948H0.731702C0.343857 2.7948 0.0294189 3.0707 0.0294189 3.41102C0.0294189 3.75134 0.343857 4.02725 0.731702 4.02725Z" fill="#D8D8D8"/>
<path d="M3.06471 1.5021H9.4175C9.80535 1.5021 10.1198 1.2262 10.1198 0.885876C10.1198 0.545557 9.80535 0.269653 9.4175 0.269653H3.06471C2.67686 0.269653 2.36243 0.545557 2.36243 0.885876C2.36243 1.2262 2.67686 1.5021 3.06471 1.5021Z" fill="#D8D8D8"/>
</svg>
