<svg width="21" height="20" viewBox="0 0 21 20" fill="none" xmlns="http://www.w3.org/2000/svg">
<path d="M20.9617 5.03393L19.4617 1.09011C19.3597 0.821557 19.073 0.640426 18.75 0.640503H2.25C1.92704 0.640426 1.6403 0.821557 1.53826 1.09011L0.0382324 5.03393C0.0151172 5.09532 0.00219726 5.15929 0 5.22388C0 5.23047 0 5.23505 0 5.24164V5.89895C0.00272461 6.92881 0.558413 7.89751 1.49998 8.5137C1.49998 8.51897 1.49998 8.5229 1.49998 8.52814V17.0731C1.49998 18.1621 2.50734 19.045 3.74998 19.045H17.25C18.4926 19.045 19.5 18.1621 19.5 17.0731V8.52814C19.5 8.52286 19.5 8.51893 19.5 8.5137C20.4415 7.89751 20.9973 6.92881 21 5.89895V5.24164C21 5.23505 21 5.23047 21 5.22388C20.9978 5.15926 20.9849 5.09528 20.9617 5.03393ZM15.75 1.9551H18.2093L19.2098 4.58432H15.75V1.9551ZM11.25 1.9551H14.25V4.58432H11.25V1.9551ZM6.75 1.9551H9.75001V4.58432H6.75V1.9551ZM2.79075 1.9551H5.25001V4.58432H1.79024L2.79075 1.9551ZM12 17.7304H8.99999V12.472H12V17.7304ZM18 17.0731C18 17.4361 17.6642 17.7304 17.25 17.7304H13.5V11.8147C13.5 11.4516 13.1642 11.1574 12.75 11.1574H8.24998C7.83575 11.1574 7.49997 11.4516 7.49997 11.8147V17.7304H3.74998C3.33575 17.7304 2.99997 17.4361 2.99997 17.0731V9.11971C4.0525 9.30908 5.147 9.08894 5.99998 8.51631C7.33882 9.3781 9.16114 9.3781 10.5 8.51631C11.8388 9.3781 13.6611 9.3781 15 8.51631C15.853 9.08898 16.9475 9.30908 18 9.11971V17.0731ZM17.25 7.87082C16.6014 7.87048 15.9855 7.62114 15.5647 7.18855C15.2922 6.91522 14.8183 6.88726 14.5065 7.12612C14.4812 7.14549 14.4573 7.16637 14.4352 7.18855C13.6013 8.00427 12.1708 8.07302 11.24 7.34218C11.1784 7.29381 11.1199 7.24255 11.0647 7.18855C10.7712 6.91522 10.2804 6.90212 9.9685 7.15939C9.95708 7.16883 9.94596 7.17854 9.93524 7.18855C9.10133 8.00427 7.67078 8.07302 6.74002 7.34218C6.67841 7.29381 6.61992 7.24255 6.56472 7.18855C6.27121 6.91522 5.78039 6.90212 5.46851 7.15939C5.45708 7.16883 5.44596 7.17854 5.43524 7.18855C5.01446 7.62114 4.39862 7.87048 3.74998 7.87082C2.50734 7.87082 1.49998 6.98797 1.49998 5.89891H19.5C19.5 6.98797 18.4926 7.87082 17.25 7.87082Z" fill="#324A59"/>
</svg>
