<svg width="24" height="27" viewBox="0 0 24 27" fill="none" xmlns="http://www.w3.org/2000/svg">
<g filter="url(#filter0_d_224_152)">
<path fill-rule="evenodd" clip-rule="evenodd" d="M15.7169 7.43413C15.3416 7.43413 15.0369 7.12949 15.0369 6.75413V4.80754C15.0369 2.90719 13.4911 1.36134 11.5907 1.36134H11.5762C10.6578 1.36134 9.79738 1.71494 9.14731 2.35957C8.4927 3.00692 8.13094 3.87097 8.12732 4.79213V6.75413C8.12732 7.12949 7.82268 7.43413 7.44733 7.43413C7.07197 7.43413 6.76733 7.12949 6.76733 6.75413V4.80754C6.77277 3.50196 7.27778 2.29701 8.18897 1.39398C9.10107 0.490045 10.3051 -0.0330952 11.5935 0.00135771C14.2409 0.00135771 16.3969 2.15739 16.3969 4.80754V6.75413C16.3969 7.12949 16.0923 7.43413 15.7169 7.43413" fill="#001833"/>
<path fill-rule="evenodd" clip-rule="evenodd" d="M8.11811 7.36986C6.59674 7.36986 5.36006 8.60654 5.36006 10.1279V14.0166C5.36006 15.5379 6.59674 16.7746 8.11811 16.7746H15.0459C16.5663 16.7746 17.8039 15.5379 17.8039 14.0166V10.1279C17.8039 8.60654 16.5663 7.36986 15.0459 7.36986H8.11811ZM15.0458 18.1344H8.11803C5.84686 18.1344 4 16.2875 4 14.0163V10.1277C4 7.85652 5.84686 6.00966 8.11803 6.00966H15.0458C17.317 6.00966 19.1638 7.85652 19.1638 10.1277V14.0163C19.1638 16.2875 17.317 18.1344 15.0458 18.1344V18.1344Z" fill="#001833"/>
<path fill-rule="evenodd" clip-rule="evenodd" d="M11.5812 13.7588C11.2058 13.7588 10.9012 13.4541 10.9012 13.0788V11.0651C10.9012 10.6897 11.2058 10.3851 11.5812 10.3851C11.9565 10.3851 12.2612 10.6897 12.2612 11.0651V13.0788C12.2612 13.4541 11.9565 13.7588 11.5812 13.7588" fill="#001833"/>
</g>
<defs>
<filter id="filter0_d_224_152" x="0" y="-0.000244141" width="23.1638" height="26.1346" filterUnits="userSpaceOnUse" color-interpolation-filters="sRGB">
<feFlood flood-opacity="0" result="BackgroundImageFix"/>
<feColorMatrix in="SourceAlpha" type="matrix" values="0 0 0 0 0 0 0 0 0 0 0 0 0 0 0 0 0 0 127 0" result="hardAlpha"/>
<feOffset dy="4"/>
<feGaussianBlur stdDeviation="2"/>
<feComposite in2="hardAlpha" operator="out"/>
<feColorMatrix type="matrix" values="0 0 0 0 0 0 0 0 0 0 0 0 0 0 0 0 0 0 0.25 0"/>
<feBlend mode="normal" in2="BackgroundImageFix" result="effect1_dropShadow_224_152"/>
<feBlend mode="normal" in="SourceGraphic" in2="effect1_dropShadow_224_152" result="shape"/>
</filter>
</defs>
</svg>
