<svg width="22" height="19" viewBox="0 0 22 19" fill="none" xmlns="http://www.w3.org/2000/svg">
<path d="M17.2453 17.5597H3.57336V18.9213H17.2453V17.5597Z" fill="#D8D8D8"/>
<path d="M12.8692 6.59875H8.0789C7.64983 6.59875 7.30206 6.90354 7.30206 7.27958C7.30206 7.65561 7.64983 7.9604 8.0789 7.9604H12.8692C13.2983 7.9604 13.6461 7.65561 13.6461 7.27958C13.6461 6.90354 13.2983 6.59875 12.8692 6.59875Z" fill="#D8D8D8"/>
<path d="M16.4944 9.77576H8.0789C7.64983 9.77576 7.30206 10.0805 7.30206 10.4566C7.30206 10.8326 7.64983 11.1374 8.0789 11.1374H16.4944C16.9235 11.1374 17.2712 10.8326 17.2712 10.4566C17.2712 10.0805 16.9234 9.77576 16.4944 9.77576Z" fill="#D8D8D8"/>
<path d="M20.6716 0.59976C20.3927 0.489919 20.0667 0.533284 19.8378 0.710506L17.6624 2.39708L15.4845 0.690288C15.1896 0.459032 14.7437 0.459032 14.4488 0.690288L12.2737 2.39502L10.0983 0.690288C9.8034 0.459032 9.35779 0.459032 9.06284 0.690288L6.88491 2.39708L4.70958 0.710506C4.48095 0.533501 4.15468 0.490136 3.87579 0.59976C3.59719 0.709818 3.418 0.952648 3.418 1.22043V13.3387H0.776834C0.347768 13.3387 0 13.6435 0 14.0195V15.6762C0 17.4655 1.66109 18.9213 3.7028 18.9213V17.5597C2.51765 17.5597 1.55363 16.7146 1.55363 15.6762V14.7004H13.7237V15.6762C13.7237 17.4655 15.3848 18.9213 17.4265 18.9213C19.4682 18.9213 21.1293 17.4656 21.1293 15.6762V1.2204C21.1294 0.952612 20.9502 0.709818 20.6716 0.59976ZM19.5757 15.6762C19.5757 16.7146 18.6115 17.5597 17.4266 17.5597C16.2417 17.5597 15.2774 16.7146 15.2774 15.6762V14.0195C15.2774 13.6435 14.9296 13.3387 14.5006 13.3387H4.97163V2.73156L6.37327 3.81836C6.66846 4.04712 7.11226 4.04596 7.40563 3.81586L9.58072 2.11114L11.7558 3.81565C12.0507 4.0469 12.4966 4.0469 12.7916 3.81565L14.9669 2.11092L17.142 3.81565C17.4356 4.04575 17.8794 4.04665 18.1743 3.81814L19.5757 2.73159V15.6762Z" fill="#D8D8D8"/>
</svg>
