<svg width="18" height="16" viewBox="0 0 18 16" fill="none" xmlns="http://www.w3.org/2000/svg">
<path d="M16.3701 4.04524H15.581H14.3528C15.0716 3.64378 15.5436 2.9837 15.5436 2.23733C15.5436 1.016 14.2843 0.0224609 12.7365 0.0224609C11.4232 0.0224609 9.86804 2.02384 9 3.31737C8.13195 2.02406 6.5763 0.0224609 5.26322 0.0224609C3.71549 0.0224609 2.45612 1.01622 2.45612 2.23733C2.45612 2.9837 2.92789 3.64378 3.64693 4.04524H2.53953H1.63015C0.731416 4.04524 0 4.69542 0 5.49439V7.79202C0 8.3612 0.371772 8.85312 0.909876 9.08995V14.3482C0.909876 15.1476 1.64104 15.7977 2.53953 15.7977H15.5808C16.4797 15.7977 17.2109 15.1476 17.2109 14.3482V9.03163C17.6829 8.77763 18 8.31806 18 7.79246V5.49461C18.0002 4.69564 17.2691 4.04524 16.3701 4.04524ZM1.63015 7.92078C1.5502 7.92078 1.48511 7.86311 1.48511 7.79224V5.49439C1.48511 5.42351 1.5502 5.36585 1.63015 5.36585H8.2572V7.92056L1.63015 7.92078ZM9.74255 5.36585H16.3701C16.45 5.36585 16.5151 5.42351 16.5151 5.49439V7.79202C16.5151 7.86289 16.45 7.92056 16.3701 7.92056H9.74255V5.36585ZM12.7363 1.34307C13.4528 1.34307 14.0583 1.75267 14.0583 2.23733C14.0583 2.722 13.4528 3.1316 12.7363 3.1316H10.9022C11.6534 2.1669 12.4252 1.40029 12.7363 1.34307ZM5.24268 1.34197C5.5694 1.40007 6.34512 2.16712 7.09733 3.13204H5.26322C4.54666 3.13204 3.94123 2.72244 3.94123 2.23778C3.94123 1.75311 4.54666 1.34307 5.24268 1.34197ZM2.39498 14.3486V9.24138H8.25745V14.4774H2.53953C2.45983 14.4776 2.39498 14.4197 2.39498 14.3486ZM15.581 14.4776H9.74255V9.24138H15.7261V14.3484C15.7261 14.4197 15.661 14.4776 15.581 14.4776Z" fill="#D8D8D8"/>
</svg>
