<svg width="26" height="23" viewBox="0 0 26 23" fill="none" xmlns="http://www.w3.org/2000/svg">
<g filter="url(#filter0_d_224_158)">
<path fill-rule="evenodd" clip-rule="evenodd" d="M12.9993 5.07663C11.8023 5.07663 10.8294 6.05044 10.8294 7.24745C10.8294 8.44356 11.8023 9.41647 12.9993 9.41647C14.1963 9.41647 15.1701 8.44356 15.1701 7.24745C15.1701 6.05044 14.1963 5.07663 12.9993 5.07663M12.9994 10.7666C11.058 10.7666 9.47943 9.18795 9.47943 7.24754C9.47943 5.30623 11.058 3.72672 12.9994 3.72672C14.9407 3.72672 16.5202 5.30623 16.5202 7.24754C16.5202 9.18795 14.9407 10.7666 12.9994 10.7666" fill="#001833"/>
<mask id="mask0_224_158" style="mask-type:alpha" maskUnits="userSpaceOnUse" x="4" y="-1" width="18" height="16">
<path fill-rule="evenodd" clip-rule="evenodd" d="M4 -0.000244141H22V14.4944H4V-0.000244141Z" fill="white"/>
</mask>
<g mask="url(#mask0_224_158)">
<path fill-rule="evenodd" clip-rule="evenodd" d="M5.41274 7.24675C7.08675 10.9449 9.90647 13.1436 12.9998 13.1445C16.0931 13.1436 18.9128 10.9449 20.5869 7.24675C18.9128 3.54952 16.0931 1.3508 12.9998 1.3499C9.90737 1.3508 7.08675 3.54952 5.41274 7.24675V7.24675ZM13.0016 14.4947H12.998H12.9971C9.27471 14.492 5.93209 11.8829 4.05468 7.51334C3.98177 7.34324 3.98177 7.15063 4.05468 6.98053C5.93209 2.6119 9.27561 0.00277993 12.9971 7.99123e-05C12.9989 -0.000820094 12.9989 -0.000820094 12.9998 7.99123e-05C13.0016 -0.000820094 13.0016 -0.000820094 13.0025 7.99123e-05C16.725 0.00277993 20.0676 2.6119 21.945 6.98053C22.0188 7.15063 22.0188 7.34324 21.945 7.51334C20.0685 11.8829 16.725 14.492 13.0025 14.4947H13.0016Z" fill="#001833"/>
</g>
</g>
<defs>
<filter id="filter0_d_224_158" x="0" y="-0.000244141" width="26" height="22.4946" filterUnits="userSpaceOnUse" color-interpolation-filters="sRGB">
<feFlood flood-opacity="0" result="BackgroundImageFix"/>
<feColorMatrix in="SourceAlpha" type="matrix" values="0 0 0 0 0 0 0 0 0 0 0 0 0 0 0 0 0 0 127 0" result="hardAlpha"/>
<feOffset dy="4"/>
<feGaussianBlur stdDeviation="2"/>
<feComposite in2="hardAlpha" operator="out"/>
<feColorMatrix type="matrix" values="0 0 0 0 0 0 0 0 0 0 0 0 0 0 0 0 0 0 0.25 0"/>
<feBlend mode="normal" in2="BackgroundImageFix" result="effect1_dropShadow_224_158"/>
<feBlend mode="normal" in="SourceGraphic" in2="effect1_dropShadow_224_158" result="shape"/>
</filter>
</defs>
</svg>
